<svg width="25" height="25" viewBox="0 0 25 25" fill="none" xmlns="http://www.w3.org/2000/svg">
<mask id="mask0_2046_7" style="mask-type:alpha" maskUnits="userSpaceOnUse" x="0" y="0" width="25" height="25">
<rect x="0.0209961" y="0.304321" width="24" height="24" fill="#D9D9D9"/>
</mask>
<g mask="url(#mask0_2046_7)">
<path d="M11.0211 20.3043C10.7377 20.3043 10.5002 20.2085 10.3086 20.0168C10.1169 19.8252 10.0211 19.5877 10.0211 19.3043V13.3043L4.22108 5.90432C3.97108 5.57099 3.93358 5.22099 4.10858 4.85432C4.28358 4.48765 4.58774 4.30432 5.02108 4.30432H19.0211C19.4544 4.30432 19.7586 4.48765 19.9336 4.85432C20.1086 5.22099 20.0711 5.57099 19.8211 5.90432L14.0211 13.3043V19.3043C14.0211 19.5877 13.9252 19.8252 13.7336 20.0168C13.5419 20.2085 13.3044 20.3043 13.0211 20.3043H11.0211ZM12.0211 12.6043L16.9711 6.30432H7.07108L12.0211 12.6043Z" fill="#1C1B1F"/>
</g>
</svg>
