<svg width="25" height="25" viewBox="0 0 25 25" fill="none" xmlns="http://www.w3.org/2000/svg">
<mask id="mask0_2003_7" style="mask-type:alpha" maskUnits="userSpaceOnUse" x="0" y="0" width="25" height="25">
<rect x="0.974854" y="0.366028" width="24" height="24" fill="#D9D9D9"/>
</mask>
<g mask="url(#mask0_2003_7)">
<path d="M21.2749 20.666C20.8883 21.0526 20.2615 21.0526 19.8749 20.666L14.9077 15.6989C14.5474 15.3386 13.9774 15.3154 13.5342 15.5669C13.2278 15.7407 12.8997 15.8904 12.5499 16.016C11.8999 16.2494 11.2082 16.366 10.4749 16.366C8.65819 16.366 7.12069 15.7369 5.86235 14.4785C4.60402 13.2202 3.97485 11.6827 3.97485 9.86603C3.97485 8.04936 4.60402 6.51186 5.86235 5.25353C7.12069 3.99519 8.65819 3.36603 10.4749 3.36603C12.2915 3.36603 13.829 3.99519 15.0874 5.25353C16.3457 6.51186 16.9749 8.04936 16.9749 9.86603C16.9749 10.5994 16.8582 11.291 16.6249 11.941C16.4993 12.2909 16.3495 12.619 16.1757 12.9254C15.9242 13.3685 15.9474 13.9386 16.3077 14.2989L21.2749 19.266C21.6615 19.6526 21.6615 20.2794 21.2749 20.666V20.666ZM10.4749 14.366C11.7249 14.366 12.7874 13.9285 13.6624 13.0535C14.5374 12.1785 14.9749 11.116 14.9749 9.86603C14.9749 8.61603 14.5374 7.55353 13.6624 6.67853C12.7874 5.80353 11.7249 5.36603 10.4749 5.36603C9.22485 5.36603 8.16235 5.80353 7.28735 6.67853C6.41235 7.55353 5.97485 8.61603 5.97485 9.86603C5.97485 11.116 6.41235 12.1785 7.28735 13.0535C8.16235 13.9285 9.22485 14.366 10.4749 14.366Z" fill="#1C1B1F"/>
</g>
</svg>
